<svg xmlns="http://www.w3.org/2000/svg" xmlns:xlink="http://www.w3.org/1999/xlink" width="300" zoomAndPan="magnify" viewBox="0 0 224.87999 33.749998" height="45" preserveAspectRatio="xMidYMid meet" version="1.0"><defs><g/><clipPath id="d930c1eb44"><path d="M 1 0 L 223.992188 0 L 223.992188 33 L 1 33 Z M 1 0 " clip-rule="nonzero"/></clipPath><clipPath id="eb989aa391"><path d="M 0.957031 19 L 24 19 L 24 32 L 0.957031 32 Z M 0.957031 19 " clip-rule="nonzero"/></clipPath><clipPath id="1009da5f02"><path d="M 22 0.992188 L 33 0.992188 L 33 24 L 22 24 Z M 22 0.992188 " clip-rule="nonzero"/></clipPath><clipPath id="a1bf12d93c"><path d="M 29 22 L 51.558594 22 L 51.558594 32.636719 L 29 32.636719 Z M 29 22 " clip-rule="nonzero"/></clipPath><clipPath id="93cf949a5c"><path d="M 54 6 L 222.992188 6 L 222.992188 32 L 54 32 Z M 54 6 " clip-rule="nonzero"/></clipPath><clipPath id="d73c53e7af"><path d="M 156 1 L 168.992188 1 L 168.992188 20 L 156 20 Z M 156 1 " clip-rule="nonzero"/></clipPath><clipPath id="1b1524ac71"><rect x="0" width="169" y="0" height="26"/></clipPath><clipPath id="75045367fd"><rect x="0" width="223" y="0" height="33"/></clipPath></defs><g clip-path="url(#d930c1eb44)"><g transform="matrix(1, 0, 0, 1, 1, -0.000000000000000999)"><g clip-path="url(#75045367fd)"><g clip-path="url(#eb989aa391)"><path fill="#c24b73" d="M 0.960938 24.550781 C 8.085938 32.597656 14.46875 31.859375 18.535156 29.871094 C 15.371094 30.019531 10.394531 29.484375 6.753906 25.496094 C 6.753906 25.496094 14.789062 18.164062 23.121094 26.441406 C 13.414062 12.707031 0.960938 24.550781 0.960938 24.550781 " fill-opacity="1" fill-rule="nonzero"/></g><path fill="#f0f3fd" d="M 10.949219 19.207031 C 10.414062 18.21875 9.988281 17.109375 9.714844 15.875 C 9.714844 15.875 20.339844 13.546875 23.417969 24.882812 C 21.878906 8.132812 5.171875 12.160156 5.171875 12.160156 C 5.832031 15.394531 6.84375 17.878906 8.0625 19.773438 C 8.96875 19.503906 9.9375 19.296875 10.949219 19.207031 " fill-opacity="1" fill-rule="nonzero"/><path fill="#f193a5" d="M 14.960938 3.488281 C 13.917969 6.621094 13.550781 9.277344 13.660156 11.527344 C 14.578125 11.746094 15.519531 12.054688 16.441406 12.480469 C 16.476562 11.355469 16.65625 10.183594 17.039062 8.980469 C 17.039062 8.980469 27.40625 12.273438 24.402344 23.628906 C 31.445312 8.351562 14.960938 3.488281 14.960938 3.488281 " fill-opacity="1" fill-rule="nonzero"/><g clip-path="url(#1009da5f02)"><path fill="#c24b73" d="M 27.84375 0.992188 C 25.375 3.175781 23.734375 5.292969 22.703125 7.292969 C 22.75 7.339844 22.796875 7.386719 22.847656 7.433594 C 23.523438 8.097656 24.117188 8.796875 24.625 9.53125 C 25.21875 8.566406 25.964844 7.640625 26.902344 6.785156 C 26.902344 6.785156 34.230469 14.820312 25.953125 23.152344 C 39.6875 13.445312 27.84375 0.992188 27.84375 0.992188 " fill-opacity="1" fill-rule="nonzero"/></g><path fill="#d95f77" d="M 40.234375 5.203125 C 37 5.859375 34.519531 6.875 32.625 8.089844 C 32.652344 8.175781 32.675781 8.261719 32.699219 8.351562 C 32.949219 9.234375 33.113281 10.117188 33.1875 10.980469 C 34.179688 10.445312 35.285156 10.019531 36.519531 9.746094 C 36.519531 9.746094 38.847656 20.371094 27.515625 23.449219 C 44.261719 21.910156 40.234375 5.203125 40.234375 5.203125 " fill-opacity="1" fill-rule="nonzero"/><g clip-path="url(#a1bf12d93c)"><path fill="#f193a5" d="M 45.097656 22.730469 C 44.402344 23.472656 43.660156 24.117188 42.878906 24.664062 C 43.835938 25.253906 44.757812 26 45.609375 26.933594 C 45.609375 26.933594 37.574219 34.261719 29.242188 25.984375 C 38.949219 39.71875 51.402344 27.878906 51.402344 27.878906 C 49.21875 25.40625 47.101562 23.765625 45.097656 22.730469 " fill-opacity="1" fill-rule="nonzero"/></g><path fill="#f193a5" d="M 40.824219 13.738281 C 40.804688 13.828125 40.78125 13.914062 40.757812 14.003906 C 40.53125 14.894531 40.230469 15.738281 39.867188 16.523438 C 40.988281 16.558594 42.164062 16.738281 43.367188 17.121094 C 43.367188 17.121094 40.074219 27.488281 28.71875 24.484375 C 43.992188 31.527344 48.855469 15.042969 48.855469 15.042969 C 45.726562 13.996094 43.074219 13.632812 40.824219 13.738281 " fill-opacity="1" fill-rule="nonzero"/><g clip-path="url(#93cf949a5c)"><g transform="matrix(1, 0, 0, 1, 54, 6)"><g clip-path="url(#1b1524ac71)"><g fill="#f0f3fd" fill-opacity="1"><g transform="translate(1.123593, 19.521947)"><g><path d="M 16.546875 -1.53125 C 16.003906 -1.101562 15.148438 -0.707031 13.984375 -0.34375 C 12.828125 0.0195312 11.757812 0.203125 10.78125 0.203125 C 8.914062 0.203125 7.273438 -0.175781 5.859375 -0.9375 C 4.453125 -1.707031 3.363281 -2.757812 2.59375 -4.09375 C 1.832031 -5.425781 1.453125 -6.921875 1.453125 -8.578125 C 1.453125 -10.515625 1.863281 -12.191406 2.6875 -13.609375 C 3.507812 -15.035156 4.617188 -16.128906 6.015625 -16.890625 C 7.410156 -17.648438 8.941406 -18.03125 10.609375 -18.03125 C 11.609375 -18.03125 12.550781 -17.910156 13.4375 -17.671875 C 14.320312 -17.429688 15.117188 -17.113281 15.828125 -16.71875 L 15.046875 -14.515625 C 14.515625 -14.816406 13.847656 -15.078125 13.046875 -15.296875 C 12.253906 -15.515625 11.535156 -15.625 10.890625 -15.625 C 9.515625 -15.625 8.296875 -15.34375 7.234375 -14.78125 C 6.171875 -14.226562 5.351562 -13.429688 4.78125 -12.390625 C 4.207031 -11.359375 3.921875 -10.15625 3.921875 -8.78125 C 3.921875 -7.5 4.207031 -6.351562 4.78125 -5.34375 C 5.351562 -4.34375 6.164062 -3.566406 7.21875 -3.015625 C 8.269531 -2.460938 9.472656 -2.1875 10.828125 -2.1875 C 11.453125 -2.1875 12.054688 -2.25 12.640625 -2.375 C 13.234375 -2.5 13.726562 -2.675781 14.125 -2.90625 L 14.125 -6.4375 L 10.578125 -6.4375 L 10.578125 -8.734375 L 16.546875 -8.734375 Z M 16.546875 -1.53125 "/></g></g></g><g fill="#f0f3fd" fill-opacity="1"><g transform="translate(19.655832, 19.521947)"><g><path d="M 16.734375 -17.828125 L 8.875 0.84375 L 1.015625 -17.828125 L 3.84375 -17.828125 L 8.96875 -4.984375 L 13.9375 -17.828125 Z M 16.734375 -17.828125 "/></g></g></g><g fill="#f0f3fd" fill-opacity="1"><g transform="translate(37.374822, 19.521947)"><g><path d="M 18.09375 -17.828125 L 18.09375 0.59375 L 18.03125 0.59375 L 4.9375 -12.703125 L 4.984375 0 L 2.5625 0 L 2.5625 -18.375 L 2.6875 -18.375 L 15.75 -4.9375 L 15.703125 -17.828125 Z M 18.09375 -17.828125 "/></g></g></g><g fill="#f0f3fd" fill-opacity="1"><g transform="translate(58.026437, 19.521947)"><g><path d="M 18.09375 -17.828125 L 18.09375 0.59375 L 18.03125 0.59375 L 4.9375 -12.703125 L 4.984375 0 L 2.5625 0 L 2.5625 -18.375 L 2.6875 -18.375 L 15.75 -4.9375 L 15.703125 -17.828125 Z M 18.09375 -17.828125 "/></g></g></g><g fill="#000000" fill-opacity="1"><g transform="translate(78.683882, 19.521947)"><g/></g></g><g fill="#d95f77" fill-opacity="1"><g transform="translate(86.475552, 19.521947)"><g><path d="M 4.953125 -17.828125 L 4.953125 -2.3125 L 14.03125 -2.3125 L 14.03125 0 L 2.5625 0 L 2.5625 -17.828125 Z M 4.953125 -17.828125 "/></g></g></g><g fill="#d95f77" fill-opacity="1"><g transform="translate(101.80408, 19.521947)"><g><path d="M 1.453125 -8.90625 C 1.453125 -10.53125 1.863281 -12.039062 2.6875 -13.4375 C 3.507812 -14.832031 4.613281 -15.945312 6 -16.78125 C 7.394531 -17.613281 8.910156 -18.03125 10.546875 -18.03125 C 12.179688 -18.03125 13.695312 -17.613281 15.09375 -16.78125 C 16.488281 -15.945312 17.597656 -14.832031 18.421875 -13.4375 C 19.253906 -12.039062 19.671875 -10.53125 19.671875 -8.90625 C 19.671875 -7.257812 19.257812 -5.738281 18.4375 -4.34375 C 17.613281 -2.945312 16.5 -1.835938 15.09375 -1.015625 C 13.695312 -0.203125 12.179688 0.203125 10.546875 0.203125 C 8.910156 0.203125 7.390625 -0.195312 5.984375 -1 C 4.585938 -1.8125 3.484375 -2.910156 2.671875 -4.296875 C 1.859375 -5.691406 1.453125 -7.226562 1.453125 -8.90625 Z M 3.921875 -8.875 C 3.921875 -7.65625 4.21875 -6.523438 4.8125 -5.484375 C 5.40625 -4.453125 6.210938 -3.632812 7.234375 -3.03125 C 8.265625 -2.425781 9.390625 -2.125 10.609375 -2.125 C 11.816406 -2.125 12.925781 -2.421875 13.9375 -3.015625 C 14.945312 -3.617188 15.742188 -4.441406 16.328125 -5.484375 C 16.910156 -6.523438 17.203125 -7.664062 17.203125 -8.90625 C 17.203125 -10.132812 16.90625 -11.273438 16.3125 -12.328125 C 15.726562 -13.378906 14.925781 -14.207031 13.90625 -14.8125 C 12.882812 -15.425781 11.765625 -15.734375 10.546875 -15.734375 C 9.335938 -15.734375 8.222656 -15.421875 7.203125 -14.796875 C 6.179688 -14.179688 5.378906 -13.347656 4.796875 -12.296875 C 4.210938 -11.242188 3.921875 -10.101562 3.921875 -8.875 Z M 3.921875 -8.875 "/></g></g></g><g fill="#d95f77" fill-opacity="1"><g transform="translate(122.923927, 19.521947)"><g><path d="M 13.09375 -17.828125 L 13.09375 -15.53125 L 8.3125 -15.53125 L 8.3125 0 L 5.921875 0 L 5.921875 -15.53125 L 1.25 -15.53125 L 1.25 -17.828125 Z M 13.09375 -17.828125 "/></g></g></g><g fill="#d95f77" fill-opacity="1"><g transform="translate(137.266696, 19.521947)"><g><path d="M 4.734375 -6.3125 C 4.734375 -5.519531 4.921875 -4.804688 5.296875 -4.171875 C 5.679688 -3.546875 6.195312 -3.046875 6.84375 -2.671875 C 7.488281 -2.304688 8.207031 -2.125 9 -2.125 C 9.820312 -2.125 10.566406 -2.300781 11.234375 -2.65625 C 11.898438 -3.019531 12.421875 -3.519531 12.796875 -4.15625 C 13.171875 -4.800781 13.359375 -5.519531 13.359375 -6.3125 L 13.359375 -17.828125 L 15.703125 -17.828125 L 15.703125 -6.234375 C 15.703125 -4.972656 15.40625 -3.851562 14.8125 -2.875 C 14.226562 -1.894531 13.425781 -1.132812 12.40625 -0.59375 C 11.382812 -0.0625 10.25 0.203125 9 0.203125 C 7.769531 0.203125 6.644531 -0.0625 5.625 -0.59375 C 4.601562 -1.132812 3.800781 -1.894531 3.21875 -2.875 C 2.632812 -3.851562 2.34375 -4.972656 2.34375 -6.234375 L 2.34375 -17.828125 L 4.734375 -17.828125 Z M 4.734375 -6.3125 "/></g></g></g><g clip-path="url(#d73c53e7af)"><g fill="#d95f77" fill-opacity="1"><g transform="translate(155.306053, 19.521947)"><g><path d="M 11.78125 -14.640625 C 11.144531 -14.984375 10.460938 -15.257812 9.734375 -15.46875 C 9.015625 -15.6875 8.332031 -15.796875 7.6875 -15.796875 C 6.71875 -15.796875 5.945312 -15.578125 5.375 -15.140625 C 4.8125 -14.710938 4.53125 -14.117188 4.53125 -13.359375 C 4.53125 -12.617188 4.863281 -12.015625 5.53125 -11.546875 C 6.195312 -11.078125 7.148438 -10.613281 8.390625 -10.15625 C 9.304688 -9.832031 10.078125 -9.472656 10.703125 -9.078125 C 11.335938 -8.691406 11.863281 -8.15625 12.28125 -7.46875 C 12.707031 -6.789062 12.921875 -5.925781 12.921875 -4.875 C 12.921875 -3.925781 12.679688 -3.066406 12.203125 -2.296875 C 11.722656 -1.523438 11.046875 -0.914062 10.171875 -0.46875 C 9.296875 -0.0195312 8.265625 0.203125 7.078125 0.203125 C 5.972656 0.203125 4.910156 0.0234375 3.890625 -0.328125 C 2.867188 -0.679688 1.972656 -1.128906 1.203125 -1.671875 L 2.265625 -3.578125 C 2.878906 -3.117188 3.613281 -2.726562 4.46875 -2.40625 C 5.320312 -2.082031 6.117188 -1.921875 6.859375 -1.921875 C 7.804688 -1.921875 8.632812 -2.164062 9.34375 -2.65625 C 10.0625 -3.15625 10.421875 -3.890625 10.421875 -4.859375 C 10.421875 -5.679688 10.117188 -6.332031 9.515625 -6.8125 C 8.921875 -7.300781 8.082031 -7.757812 7 -8.1875 C 6 -8.5625 5.164062 -8.929688 4.5 -9.296875 C 3.832031 -9.660156 3.257812 -10.15625 2.78125 -10.78125 C 2.3125 -11.414062 2.078125 -12.210938 2.078125 -13.171875 C 2.078125 -14.566406 2.5625 -15.691406 3.53125 -16.546875 C 4.507812 -17.410156 5.78125 -17.867188 7.34375 -17.921875 C 9.269531 -17.921875 11.054688 -17.445312 12.703125 -16.5 Z M 11.78125 -14.640625 "/></g></g></g></g></g></g></g></g></g></g></svg>