<svg xmlns="http://www.w3.org/2000/svg" xmlns:xlink="http://www.w3.org/1999/xlink" width="270" zoomAndPan="magnify" viewBox="0 0 202.5 44.999999" height="60" preserveAspectRatio="xMidYMid meet" version="1.0"><defs><filter x="0%" y="0%" width="100%" height="100%" id="d5cc7c58f7"><feColorMatrix values="0 0 0 0 1 0 0 0 0 1 0 0 0 0 1 0 0 0 1 0" color-interpolation-filters="sRGB"/></filter><g/><clipPath id="89696e2e8b"><path d="M 2.246094 26 L 33 26 L 33 42 L 2.246094 42 Z M 2.246094 26 " clip-rule="nonzero"/></clipPath><clipPath id="c0a8c8f744"><path d="M 31 0.953125 L 46 0.953125 L 46 31 L 31 31 Z M 31 0.953125 " clip-rule="nonzero"/></clipPath><clipPath id="e7a7b81047"><path d="M 40 30 L 70.328125 30 L 70.328125 44 L 40 44 Z M 40 30 " clip-rule="nonzero"/></clipPath><clipPath id="4f5a9ae32a"><path d="M 91 35.375 L 96 35.375 L 96 39.117188 L 91 39.117188 Z M 91 35.375 " clip-rule="nonzero"/></clipPath><mask id="19fcdd7e88"><g filter="url(#d5cc7c58f7)"><rect x="-20.25" width="243" fill="#000000" y="-4.5" height="53.999999" fill-opacity="0.8"/></g></mask><clipPath id="ddab2599a2"><path d="M 0.453125 0.375 L 4.761719 0.375 L 4.761719 4.117188 L 0.453125 4.117188 Z M 0.453125 0.375 " clip-rule="nonzero"/></clipPath><clipPath id="486fb38495"><rect x="0" width="5" y="0" height="5"/></clipPath><clipPath id="ce8d48d7b4"><path d="M 98 35.375 L 104 35.375 L 104 39.117188 L 98 39.117188 Z M 98 35.375 " clip-rule="nonzero"/></clipPath><mask id="5dd8d03447"><g filter="url(#d5cc7c58f7)"><rect x="-20.25" width="243" fill="#000000" y="-4.5" height="53.999999" fill-opacity="0.6"/></g></mask><clipPath id="4809f17be6"><path d="M 0.875 0.375 L 5 0.375 L 5 4.117188 L 0.875 4.117188 Z M 0.875 0.375 " clip-rule="nonzero"/></clipPath><clipPath id="1d026f40d6"><rect x="0" width="6" y="0" height="5"/></clipPath><clipPath id="c59dd93fbe"><path d="M 106 35.375 L 111 35.375 L 111 39.117188 L 106 39.117188 Z M 106 35.375 " clip-rule="nonzero"/></clipPath><mask id="75551fb45b"><g filter="url(#d5cc7c58f7)"><rect x="-20.25" width="243" fill="#000000" y="-4.5" height="53.999999" fill-opacity="0.4"/></g></mask><clipPath id="a67f2afdc1"><path d="M 0.0585938 0.375 L 4.367188 0.375 L 4.367188 4.117188 L 0.0585938 4.117188 Z M 0.0585938 0.375 " clip-rule="nonzero"/></clipPath><clipPath id="28bcf8f6c6"><rect x="0" width="5" y="0" height="5"/></clipPath><clipPath id="5c8f10ce75"><path d="M 113 35.375 L 118 35.375 L 118 39.117188 L 113 39.117188 Z M 113 35.375 " clip-rule="nonzero"/></clipPath><mask id="511dff09f9"><g filter="url(#d5cc7c58f7)"><rect x="-20.25" width="243" fill="#000000" y="-4.5" height="53.999999" fill-opacity="0.2"/></g></mask><clipPath id="3f9bed35d3"><path d="M 0.480469 0.375 L 4.789062 0.375 L 4.789062 4.117188 L 0.480469 4.117188 Z M 0.480469 0.375 " clip-rule="nonzero"/></clipPath><clipPath id="e46407cd25"><rect x="0" width="5" y="0" height="5"/></clipPath><clipPath id="eadce30a1c"><path d="M 84 35.375 L 89 35.375 L 89 39.117188 L 84 39.117188 Z M 84 35.375 " clip-rule="nonzero"/></clipPath><clipPath id="91cd9c1ae4"><path d="M 39 0.714844 L 56 0.714844 L 56 20 L 39 20 Z M 39 0.714844 " clip-rule="nonzero"/></clipPath><clipPath id="3b6ba2660e"><path d="M 60 0.714844 L 77 0.714844 L 77 20 L 60 20 Z M 60 0.714844 " clip-rule="nonzero"/></clipPath><clipPath id="1715ceeff6"><rect x="0" width="79" y="0" height="26"/></clipPath><clipPath id="897b91e34b"><path d="M 128 5 L 202 5 L 202 44.945312 L 128 44.945312 Z M 128 5 " clip-rule="nonzero"/></clipPath><clipPath id="fddc97e790"><path d="M 1 0.324219 L 40 0.324219 L 40 35 L 1 35 Z M 1 0.324219 " clip-rule="nonzero"/></clipPath><clipPath id="024bfe16c2"><rect x="0" width="74" y="0" height="40"/></clipPath></defs><g clip-path="url(#89696e2e8b)"><path fill="#c24b73" d="M 2.253906 32.871094 C 11.910156 43.777344 20.5625 42.78125 26.070312 40.085938 C 21.78125 40.285156 15.039062 39.5625 10.105469 34.152344 C 10.105469 34.152344 20.996094 24.21875 32.285156 35.4375 C 19.132812 16.824219 2.253906 32.871094 2.253906 32.871094 " fill-opacity="1" fill-rule="nonzero"/></g><path fill="#000000" d="M 15.789062 25.632812 C 15.066406 24.292969 14.484375 22.792969 14.121094 21.121094 C 14.121094 21.121094 28.515625 17.960938 32.683594 33.320312 C 30.601562 10.625 7.960938 16.085938 7.960938 16.085938 C 8.855469 20.46875 10.226562 23.832031 11.878906 26.398438 C 13.105469 26.03125 14.417969 25.757812 15.789062 25.632812 " fill-opacity="1" fill-rule="nonzero"/><path fill="#f193a5" d="M 21.230469 4.335938 C 19.8125 8.578125 19.316406 12.175781 19.464844 15.226562 C 20.710938 15.519531 21.984375 15.9375 23.234375 16.519531 C 23.277344 14.996094 23.527344 13.40625 24.042969 11.773438 C 24.042969 11.773438 38.09375 16.238281 34.023438 31.621094 C 43.566406 10.925781 21.230469 4.335938 21.230469 4.335938 " fill-opacity="1" fill-rule="nonzero"/><g clip-path="url(#c0a8c8f744)"><path fill="#c24b73" d="M 38.6875 0.949219 C 35.339844 3.914062 33.113281 6.78125 31.714844 9.492188 C 31.78125 9.554688 31.847656 9.617188 31.910156 9.679688 C 32.828125 10.578125 33.632812 11.527344 34.320312 12.519531 C 35.125 11.214844 36.136719 9.957031 37.40625 8.800781 C 37.40625 8.800781 47.339844 19.691406 36.121094 30.980469 C 54.734375 17.828125 38.6875 0.949219 38.6875 0.949219 " fill-opacity="1" fill-rule="nonzero"/></g><path fill="#d95f77" d="M 55.472656 6.65625 C 51.09375 7.546875 47.730469 8.917969 45.164062 10.570312 C 45.199219 10.6875 45.234375 10.804688 45.265625 10.921875 C 45.601562 12.121094 45.820312 13.3125 45.925781 14.484375 C 47.265625 13.761719 48.765625 13.179688 50.4375 12.8125 C 50.4375 12.8125 53.597656 27.210938 38.238281 31.378906 C 60.933594 29.296875 55.472656 6.65625 55.472656 6.65625 " fill-opacity="1" fill-rule="nonzero"/><g clip-path="url(#e7a7b81047)"><path fill="#f193a5" d="M 62.066406 30.410156 C 61.117188 31.410156 60.113281 32.289062 59.054688 33.027344 C 60.351562 33.828125 61.605469 34.835938 62.757812 36.101562 C 62.757812 36.101562 51.867188 46.035156 40.578125 34.816406 C 53.730469 53.429688 70.609375 37.382812 70.609375 37.382812 C 67.644531 34.035156 64.777344 31.808594 62.066406 30.410156 " fill-opacity="1" fill-rule="nonzero"/></g><path fill="#f193a5" d="M 56.273438 18.222656 C 56.242188 18.34375 56.214844 18.460938 56.183594 18.582031 C 55.875 19.789062 55.46875 20.929688 54.972656 21.996094 C 56.496094 22.042969 58.085938 22.289062 59.71875 22.808594 C 59.71875 22.808594 55.253906 36.855469 39.867188 32.785156 C 60.566406 42.328125 67.15625 19.992188 67.15625 19.992188 C 62.917969 18.574219 59.320312 18.082031 56.273438 18.222656 " fill-opacity="1" fill-rule="nonzero"/><g clip-path="url(#4f5a9ae32a)"><g mask="url(#19fcdd7e88)"><g transform="matrix(1, 0, 0, 1, 91, 35)"><g clip-path="url(#486fb38495)"><g clip-path="url(#ddab2599a2)"><path fill="#f193a5" d="M 0.605469 2.105469 C 0.605469 0.988281 1.5 0.09375 2.617188 0.09375 C 3.734375 0.09375 4.625 0.988281 4.625 2.105469 C 4.625 3.222656 3.734375 4.117188 2.617188 4.117188 C 1.5 4.117188 0.605469 3.222656 0.605469 2.105469 Z M 0.605469 2.105469 " fill-opacity="1" fill-rule="nonzero"/></g></g></g></g></g><g clip-path="url(#ce8d48d7b4)"><g mask="url(#5dd8d03447)"><g transform="matrix(1, 0, 0, 1, 98, 35)"><g clip-path="url(#1d026f40d6)"><g clip-path="url(#4809f17be6)"><path fill="#f193a5" d="M 0.910156 2.105469 C 0.910156 0.988281 1.804688 0.09375 2.917969 0.09375 C 4.035156 0.09375 4.929688 0.988281 4.929688 2.105469 C 4.929688 3.222656 4.035156 4.117188 2.917969 4.117188 C 1.804688 4.117188 0.910156 3.222656 0.910156 2.105469 Z M 0.910156 2.105469 " fill-opacity="1" fill-rule="nonzero"/></g></g></g></g></g><g clip-path="url(#c59dd93fbe)"><g mask="url(#75551fb45b)"><g transform="matrix(1, 0, 0, 1, 106, 35)"><g clip-path="url(#28bcf8f6c6)"><g clip-path="url(#a67f2afdc1)"><path fill="#f193a5" d="M 0.210938 2.105469 C 0.210938 0.988281 1.105469 0.09375 2.222656 0.09375 C 3.339844 0.09375 4.234375 0.988281 4.234375 2.105469 C 4.234375 3.222656 3.339844 4.117188 2.222656 4.117188 C 1.105469 4.117188 0.210938 3.222656 0.210938 2.105469 Z M 0.210938 2.105469 " fill-opacity="1" fill-rule="nonzero"/></g></g></g></g></g><g clip-path="url(#5c8f10ce75)"><g mask="url(#511dff09f9)"><g transform="matrix(1, 0, 0, 1, 113, 35)"><g clip-path="url(#e46407cd25)"><g clip-path="url(#3f9bed35d3)"><path fill="#f193a5" d="M 0.515625 2.105469 C 0.515625 0.988281 1.410156 0.09375 2.527344 0.09375 C 3.644531 0.09375 4.539062 0.988281 4.539062 2.105469 C 4.539062 3.222656 3.644531 4.117188 2.527344 4.117188 C 1.410156 4.117188 0.515625 3.222656 0.515625 2.105469 Z M 0.515625 2.105469 " fill-opacity="1" fill-rule="nonzero"/></g></g></g></g></g><g clip-path="url(#eadce30a1c)"><path fill="#f193a5" d="M 84.300781 37.105469 C 84.300781 35.988281 85.195312 35.09375 86.3125 35.09375 C 87.429688 35.09375 88.324219 35.988281 88.324219 37.105469 C 88.324219 38.222656 87.429688 39.117188 86.3125 39.117188 C 85.195312 39.117188 84.300781 38.222656 84.300781 37.105469 Z M 84.300781 37.105469 " fill-opacity="1" fill-rule="nonzero"/></g><g transform="matrix(1, 0, 0, 1, 68, 7)"><g clip-path="url(#1715ceeff6)"><g fill="#000000" fill-opacity="1"><g transform="translate(0.927795, 19.313226)"><g><path d="M 16.578125 -1.53125 C 16.035156 -1.101562 15.179688 -0.707031 14.015625 -0.34375 C 12.859375 0.0195312 11.785156 0.203125 10.796875 0.203125 C 8.929688 0.203125 7.289062 -0.175781 5.875 -0.9375 C 4.457031 -1.707031 3.363281 -2.757812 2.59375 -4.09375 C 1.832031 -5.4375 1.453125 -6.9375 1.453125 -8.59375 C 1.453125 -10.539062 1.863281 -12.222656 2.6875 -13.640625 C 3.507812 -15.066406 4.617188 -16.160156 6.015625 -16.921875 C 7.421875 -17.679688 8.957031 -18.0625 10.625 -18.0625 C 11.625 -18.0625 12.566406 -17.941406 13.453125 -17.703125 C 14.347656 -17.460938 15.148438 -17.144531 15.859375 -16.75 L 15.0625 -14.546875 C 14.539062 -14.847656 13.878906 -15.109375 13.078125 -15.328125 C 12.273438 -15.546875 11.554688 -15.65625 10.921875 -15.65625 C 9.535156 -15.65625 8.3125 -15.375 7.25 -14.8125 C 6.1875 -14.257812 5.363281 -13.460938 4.78125 -12.421875 C 4.207031 -11.390625 3.921875 -10.179688 3.921875 -8.796875 C 3.921875 -7.515625 4.207031 -6.367188 4.78125 -5.359375 C 5.363281 -4.359375 6.179688 -3.582031 7.234375 -3.03125 C 8.285156 -2.476562 9.488281 -2.203125 10.84375 -2.203125 C 11.46875 -2.203125 12.078125 -2.257812 12.671875 -2.375 C 13.265625 -2.5 13.757812 -2.679688 14.15625 -2.921875 L 14.15625 -6.453125 L 10.59375 -6.453125 L 10.59375 -8.75 L 16.578125 -8.75 Z M 16.578125 -1.53125 "/></g></g></g><g fill="#000000" fill-opacity="1"><g transform="translate(19.503958, 19.313226)"><g><path d="M 16.765625 -17.859375 L 8.890625 0.84375 L 1.015625 -17.859375 L 3.859375 -17.859375 L 8.984375 -4.984375 L 13.953125 -17.859375 Z M 16.765625 -17.859375 "/></g></g></g><g clip-path="url(#91cd9c1ae4)"><g fill="#000000" fill-opacity="1"><g transform="translate(37.264944, 19.313226)"><g><path d="M 18.125 -17.859375 L 18.125 0.59375 L 18.0625 0.59375 L 4.9375 -12.71875 L 4.984375 0 L 2.5625 0 L 2.5625 -18.40625 L 2.6875 -18.40625 L 15.78125 -4.9375 L 15.734375 -17.859375 Z M 18.125 -17.859375 "/></g></g></g></g><g clip-path="url(#3b6ba2660e)"><g fill="#000000" fill-opacity="1"><g transform="translate(57.96551, 19.313226)"><g><path d="M 18.125 -17.859375 L 18.125 0.59375 L 18.0625 0.59375 L 4.9375 -12.71875 L 4.984375 0 L 2.5625 0 L 2.5625 -18.40625 L 2.6875 -18.40625 L 15.78125 -4.9375 L 15.734375 -17.859375 Z M 18.125 -17.859375 "/></g></g></g></g></g></g><g clip-path="url(#897b91e34b)"><g transform="matrix(1, 0, 0, 1, 128, 5)"><g clip-path="url(#024bfe16c2)"><g clip-path="url(#fddc97e790)"><g fill="#d95f77" fill-opacity="1"><g transform="translate(2.097292, 32.678148)"><g><path d="M 31.765625 -32.0625 C 32.878906 -32.0625 33.816406 -31.851562 34.578125 -31.4375 C 35.347656 -31.019531 35.953125 -30.472656 36.390625 -29.796875 C 36.835938 -29.117188 37.15625 -28.332031 37.34375 -27.4375 C 37.539062 -26.550781 37.640625 -25.632812 37.640625 -24.6875 C 37.640625 -23.019531 37.304688 -21.375 36.640625 -19.75 C 35.972656 -18.132812 35.082031 -16.644531 33.96875 -15.28125 C 32.863281 -13.914062 31.582031 -12.75 30.125 -11.78125 C 28.664062 -10.8125 27.144531 -10.160156 25.5625 -9.828125 L 25.5625 -10.5 C 27.226562 -10.800781 28.65625 -11.472656 29.84375 -12.515625 C 31.039062 -13.554688 32.019531 -14.796875 32.78125 -16.234375 C 33.550781 -17.679688 34.113281 -19.222656 34.46875 -20.859375 C 34.832031 -22.492188 35.015625 -24.0625 35.015625 -25.5625 C 35.015625 -26.175781 34.957031 -26.820312 34.84375 -27.5 C 34.738281 -28.1875 34.546875 -28.804688 34.265625 -29.359375 C 33.992188 -29.910156 33.609375 -30.363281 33.109375 -30.71875 C 32.609375 -31.082031 31.984375 -31.265625 31.234375 -31.265625 C 30.117188 -31.265625 29.160156 -30.9375 28.359375 -30.28125 C 27.554688 -29.632812 26.875 -28.796875 26.3125 -27.765625 C 25.757812 -26.742188 25.296875 -25.578125 24.921875 -24.265625 C 24.546875 -22.960938 24.234375 -21.671875 23.984375 -20.390625 C 23.734375 -19.117188 23.515625 -17.90625 23.328125 -16.75 C 23.148438 -15.601562 22.976562 -14.65625 22.8125 -13.90625 C 22.625 -13.125 22.445312 -12.351562 22.28125 -11.59375 C 22.113281 -10.832031 21.90625 -10.085938 21.65625 -9.359375 C 21.40625 -8.640625 21.078125 -7.929688 20.671875 -7.234375 C 20.273438 -6.546875 19.769531 -5.882812 19.15625 -5.25 C 19.65625 -4.914062 20.375 -4.445312 21.3125 -3.84375 C 22.257812 -3.25 23.253906 -2.65625 24.296875 -2.0625 C 25.335938 -1.46875 26.335938 -0.945312 27.296875 -0.5 C 28.253906 -0.0507812 28.992188 0.171875 29.515625 0.171875 C 30.378906 0.171875 31.101562 -0.132812 31.6875 -0.75 C 32.269531 -1.363281 32.671875 -2.054688 32.890625 -2.828125 L 33.890625 -2.703125 C 33.585938 -1.765625 33.175781 -0.988281 32.65625 -0.375 C 32.144531 0.238281 31.539062 0.71875 30.84375 1.0625 C 30.15625 1.40625 29.398438 1.644531 28.578125 1.78125 C 27.765625 1.925781 26.925781 2 26.0625 2 C 25.425781 2 24.71875 1.820312 23.9375 1.46875 C 23.164062 1.125 22.367188 0.71875 21.546875 0.25 C 20.734375 -0.21875 19.941406 -0.695312 19.171875 -1.1875 C 18.410156 -1.675781 17.738281 -2.054688 17.15625 -2.328125 C 15.90625 -0.910156 14.390625 0.171875 12.609375 0.921875 C 10.835938 1.671875 8.992188 2.046875 7.078125 2.046875 C 6.359375 2.046875 5.570312 1.972656 4.71875 1.828125 C 3.875 1.691406 3.09375 1.441406 2.375 1.078125 C 1.65625 0.722656 1.050781 0.238281 0.5625 -0.375 C 0.0703125 -0.988281 -0.171875 -1.753906 -0.171875 -2.671875 C -0.171875 -3.804688 0.1875 -4.726562 0.90625 -5.4375 C 1.632812 -6.144531 2.519531 -6.691406 3.5625 -7.078125 C 4.601562 -7.460938 5.691406 -7.71875 6.828125 -7.84375 C 7.960938 -7.96875 8.960938 -8.03125 9.828125 -8.03125 C 11.328125 -8.03125 12.773438 -7.800781 14.171875 -7.34375 C 15.578125 -6.882812 16.945312 -6.363281 18.28125 -5.78125 C 18.78125 -6.675781 19.15625 -7.796875 19.40625 -9.140625 C 19.65625 -10.484375 19.875 -11.9375 20.0625 -13.5 C 20.257812 -15.070312 20.488281 -16.703125 20.75 -18.390625 C 21.019531 -20.085938 21.414062 -21.722656 21.9375 -23.296875 C 22.46875 -24.867188 23.195312 -26.316406 24.125 -27.640625 C 25.0625 -28.972656 26.289062 -30.070312 27.8125 -30.9375 C 28.457031 -31.300781 29.101562 -31.578125 29.75 -31.765625 C 30.40625 -31.960938 31.078125 -32.0625 31.765625 -32.0625 Z M 0.828125 -2.828125 C 0.828125 -2.054688 1.035156 -1.410156 1.453125 -0.890625 C 1.867188 -0.378906 2.382812 0.0234375 3 0.328125 C 3.613281 0.640625 4.28125 0.859375 5 0.984375 C 5.71875 1.109375 6.382812 1.171875 7 1.171875 C 8.75 1.171875 10.445312 0.828125 12.09375 0.140625 C 13.75 -0.535156 15.210938 -1.484375 16.484375 -2.703125 C 15.929688 -3.148438 15.207031 -3.582031 14.3125 -4 C 13.425781 -4.414062 12.488281 -4.78125 11.5 -5.09375 C 10.519531 -5.414062 9.546875 -5.671875 8.578125 -5.859375 C 7.609375 -6.054688 6.757812 -6.15625 6.03125 -6.15625 C 5.53125 -6.15625 4.984375 -6.097656 4.390625 -5.984375 C 3.796875 -5.878906 3.234375 -5.691406 2.703125 -5.421875 C 2.179688 -5.160156 1.738281 -4.816406 1.375 -4.390625 C 1.007812 -3.960938 0.828125 -3.441406 0.828125 -2.828125 Z M 0.828125 -2.828125 "/></g></g></g></g><g fill="#d95f77" fill-opacity="1"><g transform="translate(34.494019, 32.678148)"><g><path d="M 6.203125 -10.28125 C 7.035156 -10.3125 7.785156 -10.234375 8.453125 -10.046875 C 9.117188 -9.867188 9.671875 -9.570312 10.109375 -9.15625 C 10.554688 -8.738281 10.878906 -8.191406 11.078125 -7.515625 C 11.273438 -6.835938 11.316406 -6 11.203125 -5 C 11.066406 -3.945312 10.816406 -3.078125 10.453125 -2.390625 C 10.085938 -1.710938 9.628906 -1.175781 9.078125 -0.78125 C 8.523438 -0.394531 7.878906 -0.128906 7.140625 0.015625 C 6.398438 0.171875 5.613281 0.25 4.78125 0.25 C 3.394531 0.25 2.289062 -0.148438 1.46875 -0.953125 C 0.65625 -1.765625 0.25 -2.875 0.25 -4.28125 C 0.25 -5.28125 0.40625 -6.148438 0.71875 -6.890625 C 1.039062 -7.628906 1.476562 -8.25 2.03125 -8.75 C 2.59375 -9.25 3.226562 -9.625 3.9375 -9.875 C 4.644531 -10.125 5.398438 -10.257812 6.203125 -10.28125 Z M 3.328125 -3.5 C 3.328125 -3.132812 3.347656 -2.78125 3.390625 -2.4375 C 3.429688 -2.09375 3.515625 -1.78125 3.640625 -1.5 C 3.765625 -1.21875 3.953125 -0.992188 4.203125 -0.828125 C 4.453125 -0.660156 4.800781 -0.578125 5.25 -0.578125 C 5.800781 -0.523438 6.265625 -0.71875 6.640625 -1.15625 C 7.015625 -1.601562 7.316406 -2.144531 7.546875 -2.78125 C 7.785156 -3.425781 7.953125 -4.09375 8.046875 -4.78125 C 8.148438 -5.476562 8.203125 -6.0625 8.203125 -6.53125 C 8.203125 -7.394531 8.0625 -8.085938 7.78125 -8.609375 C 7.507812 -9.140625 7.023438 -9.378906 6.328125 -9.328125 C 5.742188 -9.296875 5.265625 -9.066406 4.890625 -8.640625 C 4.515625 -8.210938 4.207031 -7.691406 3.96875 -7.078125 C 3.738281 -6.460938 3.570312 -5.820312 3.46875 -5.15625 C 3.375 -4.488281 3.328125 -3.9375 3.328125 -3.5 Z M 3.328125 -3.5 "/></g></g></g><g fill="#d95f77" fill-opacity="1"><g transform="translate(44.112888, 32.678148)"><g><path d="M 0.453125 -9.15625 L 2.953125 -9.15625 L 4.828125 -17.953125 L 7.78125 -18.484375 L 5.828125 -9.15625 L 8.53125 -9.15625 L 8.28125 -8.078125 L 5.625 -8.078125 L 4.578125 -2.796875 C 4.492188 -1.898438 4.519531 -1.363281 4.65625 -1.1875 C 4.800781 -1.007812 5.019531 -1.050781 5.3125 -1.3125 C 5.601562 -1.570312 5.945312 -1.988281 6.34375 -2.5625 C 6.75 -3.132812 7.1875 -3.722656 7.65625 -4.328125 L 8.328125 -3.796875 C 8.242188 -3.546875 8.054688 -3.203125 7.765625 -2.765625 C 7.472656 -2.335938 7.132812 -1.898438 6.75 -1.453125 C 6.269531 -0.867188 5.695312 -0.378906 5.03125 0.015625 C 4.375 0.421875 3.628906 0.566406 2.796875 0.453125 C 2.066406 0.367188 1.660156 0.0546875 1.578125 -0.484375 C 1.492188 -1.023438 1.566406 -1.78125 1.796875 -2.75 L 2.796875 -8.078125 L 0.203125 -8.078125 Z M 0.453125 -9.15625 "/></g></g></g><g fill="#d95f77" fill-opacity="1"><g transform="translate(50.650291, 32.678148)"><g><path d="M 4.046875 0.171875 C 3.546875 0.421875 2.988281 0.484375 2.375 0.359375 C 1.757812 0.234375 1.328125 -0.148438 1.078125 -0.796875 C 0.972656 -1.515625 1.007812 -2.335938 1.1875 -3.265625 C 1.363281 -4.191406 1.535156 -5.050781 1.703125 -5.84375 C 1.867188 -6.632812 1.972656 -7.257812 2.015625 -7.71875 C 2.054688 -8.175781 1.882812 -8.28125 1.5 -8.03125 C 1.164062 -7.78125 0.914062 -7.550781 0.75 -7.34375 C 0.582031 -7.132812 0.429688 -6.90625 0.296875 -6.65625 C 0.234375 -6.65625 0.144531 -6.691406 0.03125 -6.765625 C -0.0703125 -6.835938 -0.191406 -6.914062 -0.328125 -7 C 0.140625 -7.71875 0.769531 -8.375 1.5625 -8.96875 C 2.351562 -9.570312 3.234375 -9.832031 4.203125 -9.75 C 4.566406 -9.6875 4.800781 -9.53125 4.90625 -9.28125 C 5.019531 -9.03125 5.101562 -8.796875 5.15625 -8.578125 C 5.1875 -8.023438 5.160156 -7.46875 5.078125 -6.90625 C 4.992188 -6.351562 4.890625 -5.804688 4.765625 -5.265625 C 4.640625 -4.722656 4.503906 -4.179688 4.359375 -3.640625 C 4.222656 -3.097656 4.117188 -2.535156 4.046875 -1.953125 C 4.046875 -1.703125 4.1875 -1.539062 4.46875 -1.46875 C 4.757812 -1.40625 4.988281 -1.472656 5.15625 -1.671875 C 6.382812 -2.640625 7.320312 -3.832031 7.96875 -5.25 C 8.625 -6.664062 9.144531 -8.109375 9.53125 -9.578125 L 12.28125 -9.578125 C 12.175781 -9.109375 12.046875 -8.5625 11.890625 -7.9375 C 11.734375 -7.3125 11.578125 -6.664062 11.421875 -6 C 11.273438 -5.332031 11.128906 -4.691406 10.984375 -4.078125 C 10.847656 -3.472656 10.757812 -2.953125 10.71875 -2.515625 C 10.675781 -2.085938 10.691406 -1.78125 10.765625 -1.59375 C 10.835938 -1.414062 10.984375 -1.441406 11.203125 -1.671875 L 12.65625 -3.578125 L 13.203125 -3.203125 C 12.804688 -2.679688 12.5 -2.257812 12.28125 -1.9375 C 12.0625 -1.613281 11.867188 -1.363281 11.703125 -1.1875 C 11.535156 -1.007812 11.390625 -0.859375 11.265625 -0.734375 C 11.140625 -0.609375 10.992188 -0.472656 10.828125 -0.328125 C 10.628906 -0.160156 10.378906 -0.0234375 10.078125 0.078125 C 9.773438 0.191406 9.46875 0.253906 9.15625 0.265625 C 8.851562 0.285156 8.578125 0.234375 8.328125 0.109375 C 8.078125 -0.015625 7.910156 -0.242188 7.828125 -0.578125 C 7.742188 -1.078125 7.75 -1.601562 7.84375 -2.15625 C 7.945312 -2.71875 8.023438 -3.25 8.078125 -3.75 C 7.578125 -2.914062 7 -2.15625 6.34375 -1.46875 C 5.695312 -0.789062 4.929688 -0.242188 4.046875 0.171875 Z M 4.046875 0.171875 "/></g></g></g><g fill="#d95f77" fill-opacity="1"><g transform="translate(62.184662, 32.678148)"><g><path d="M 6.40625 -10.25 C 6.738281 -10.25 7.09375 -10.210938 7.46875 -10.140625 C 7.84375 -10.066406 8.191406 -9.941406 8.515625 -9.765625 C 8.835938 -9.585938 9.109375 -9.359375 9.328125 -9.078125 C 9.546875 -8.796875 9.65625 -8.445312 9.65625 -8.03125 C 9.65625 -7.644531 9.503906 -7.359375 9.203125 -7.171875 C 8.898438 -6.992188 8.507812 -6.878906 8.03125 -6.828125 C 7.507812 -6.796875 7.082031 -6.953125 6.75 -7.296875 C 6.414062 -7.648438 6.273438 -7.992188 6.328125 -8.328125 C 6.410156 -8.628906 6.515625 -8.863281 6.640625 -9.03125 C 6.765625 -9.195312 7.019531 -9.351562 7.40625 -9.5 L 6.5 -9.53125 C 6.269531 -9.53125 6.015625 -9.492188 5.734375 -9.421875 C 5.460938 -9.359375 5.203125 -9.265625 4.953125 -9.140625 C 4.703125 -9.015625 4.492188 -8.851562 4.328125 -8.65625 C 4.160156 -8.46875 4.078125 -8.234375 4.078125 -7.953125 C 4.078125 -7.648438 4.191406 -7.398438 4.421875 -7.203125 C 4.660156 -7.003906 4.953125 -6.828125 5.296875 -6.671875 C 5.648438 -6.523438 6.035156 -6.375 6.453125 -6.21875 C 6.867188 -6.070312 7.25 -5.875 7.59375 -5.625 C 7.945312 -5.375 8.238281 -5.066406 8.46875 -4.703125 C 8.707031 -4.335938 8.828125 -3.867188 8.828125 -3.296875 C 8.828125 -2.679688 8.664062 -2.144531 8.34375 -1.6875 C 8.03125 -1.226562 7.632812 -0.835938 7.15625 -0.515625 C 6.6875 -0.203125 6.164062 0.03125 5.59375 0.1875 C 5.03125 0.34375 4.484375 0.421875 3.953125 0.421875 C 3.515625 0.421875 3.070312 0.398438 2.625 0.359375 C 2.175781 0.316406 1.769531 0.210938 1.40625 0.046875 C 1.050781 -0.117188 0.757812 -0.363281 0.53125 -0.6875 C 0.3125 -1.007812 0.203125 -1.429688 0.203125 -1.953125 C 0.203125 -2.453125 0.410156 -2.863281 0.828125 -3.1875 C 1.242188 -3.507812 1.691406 -3.671875 2.171875 -3.671875 C 2.640625 -3.671875 3.023438 -3.554688 3.328125 -3.328125 C 3.640625 -3.109375 3.796875 -2.734375 3.796875 -2.203125 C 3.796875 -1.734375 3.628906 -1.40625 3.296875 -1.21875 C 2.960938 -1.039062 2.640625 -0.910156 2.328125 -0.828125 C 2.359375 -0.773438 2.4375 -0.726562 2.5625 -0.6875 C 2.6875 -0.644531 2.84375 -0.609375 3.03125 -0.578125 C 3.226562 -0.554688 3.425781 -0.546875 3.625 -0.546875 C 3.820312 -0.546875 4 -0.546875 4.15625 -0.546875 C 4.71875 -0.546875 5.253906 -0.71875 5.765625 -1.0625 C 6.273438 -1.40625 6.53125 -1.898438 6.53125 -2.546875 C 6.53125 -2.628906 6.515625 -2.710938 6.484375 -2.796875 C 6.460938 -2.878906 6.4375 -2.945312 6.40625 -3 C 6.019531 -3.332031 5.578125 -3.582031 5.078125 -3.75 C 4.578125 -3.914062 4.101562 -4.109375 3.65625 -4.328125 C 3.21875 -4.546875 2.835938 -4.828125 2.515625 -5.171875 C 2.203125 -5.523438 2.046875 -6.035156 2.046875 -6.703125 C 2.046875 -7.316406 2.171875 -7.84375 2.421875 -8.28125 C 2.671875 -8.726562 3.003906 -9.097656 3.421875 -9.390625 C 3.835938 -9.679688 4.304688 -9.894531 4.828125 -10.03125 C 5.359375 -10.175781 5.882812 -10.25 6.40625 -10.25 Z M 6.40625 -10.25 "/></g></g></g></g></g></g></svg>